<svg width="18" height="18" viewBox="0 0 18 18" fill="none" xmlns="http://www.w3.org/2000/svg">
<path d="M14 4.0001V18.0001H0V4.0001H14ZM2 16.0001H12V6.0001H2V16.0001Z" fill="#2D2D2D"/>
<path d="M6.99989 0.999893C7 0.447774 7.44767 0.000115503 7.99979 0L17.0002 6.32203e-08C17.5523 0.000110783 18 0.447771 18.0001 0.999893V10.0003C18 10.5524 17.5523 11.0001 17.0002 11.0002C16.448 11.0002 16.0004 10.5525 16.0003 10.0003V3.414L6.70711 12.7072C6.31658 13.0977 5.68342 13.0977 5.29289 12.7072C4.90237 12.3167 4.90237 11.6835 5.29289 11.293L14.5861 1.99979L7.99979 1.99979C7.4476 1.99967 6.99989 1.55211 6.99989 0.999893Z" fill="#2D2D2D"/>
</svg>
